<svg width="344" height="138" viewBox="0 0 344 138" fill="none" xmlns="http://www.w3.org/2000/svg">
<g clip-path="url(#clip0_9:1005)">
<path d="M103.865 95.5478L124.454 116.094C126.708 118.344 126.708 121.995 124.454 124.245V124.245C122.206 126.489 118.566 126.488 116.319 124.244L95.7202 103.678C86.5424 111.022 75.1269 115.017 63.3642 115C34.7466 115 11.5208 91.816 11.5208 63.25C11.5208 34.684 34.7466 11.5 63.3642 11.5C91.9817 11.5 115.208 34.684 115.208 63.25C115.224 74.9915 111.223 86.3865 103.865 95.5478ZM92.3101 91.2812C99.6206 83.7768 103.703 73.7175 103.687 63.25C103.687 41.009 85.6396 23 63.3642 23C41.083 23 23.0415 41.009 23.0415 63.25C23.0415 85.4852 41.083 103.5 63.3642 103.5C73.8505 103.516 83.9281 99.4411 91.446 92.1437L92.3101 91.2812Z" fill="white"/>
</g>
<g clip-path="url(#clip1_9:1005)">
<path d="M85.5639 61.0717V78.6642C85.5639 79.8852 84.5741 80.875 83.3532 80.875V80.875C82.1322 80.875 81.1424 79.8852 81.1424 78.6642V74.2739H45.7706V78.6642C45.7706 79.8852 44.7808 80.875 43.5599 80.875V80.875C42.3389 80.875 41.3491 79.8852 41.3491 78.6642V47.8799C41.3491 46.659 42.3389 45.6692 43.5599 45.6692V45.6692C44.7808 45.6692 45.7706 46.659 45.7706 47.88V67.6728H63.4565V52.2703H76.721C79.0663 52.2703 81.3155 53.1976 82.9739 54.8482C84.6322 56.4988 85.5639 58.7374 85.5639 61.0717ZM54.6136 65.4725C52.8546 65.4725 51.1677 64.777 49.9239 63.539C48.6801 62.3011 47.9813 60.6221 47.9813 58.8714C47.9813 57.1207 48.6801 55.4416 49.9239 54.2037C51.1677 52.9658 52.8546 52.2703 54.6136 52.2703C56.3725 52.2703 58.0595 52.9658 59.3032 54.2037C60.547 55.4416 61.2458 57.1207 61.2458 58.8714C61.2458 60.6221 60.547 62.3011 59.3032 63.539C58.0595 64.777 56.3725 65.4725 54.6136 65.4725Z" fill="white"/>
</g>
<path d="M195.637 56H186.265V39.6719H172.38V56H162.954V16.8984H172.38V32.4209H186.265V16.8984H195.637V56ZM200.068 41.2026C200.068 38.3022 200.632 35.7241 201.76 33.4683C202.888 31.1945 204.508 29.4489 206.621 28.2314C208.734 27.014 211.213 26.4053 214.06 26.4053C218.411 26.4053 221.839 27.757 224.346 30.4604C226.852 33.146 228.105 36.8073 228.105 41.4443V41.7666C228.105 46.2962 226.843 49.8949 224.319 52.5625C221.812 55.2122 218.411 56.5371 214.114 56.5371C209.978 56.5371 206.657 55.3018 204.15 52.8311C201.644 50.3424 200.292 46.9766 200.095 42.7334L200.068 41.2026ZM209.119 41.7666C209.119 44.4521 209.539 46.4215 210.381 47.6748C211.222 48.9281 212.467 49.5547 214.114 49.5547C217.336 49.5547 218.984 47.075 219.055 42.1157V41.2026C219.055 35.9927 217.39 33.3877 214.06 33.3877C211.034 33.3877 209.396 35.6346 209.146 40.1284L209.119 41.7666ZM242.634 19.7183V26.9424H247.415V33.2266H242.634V46.52C242.634 47.6121 242.831 48.373 243.225 48.8027C243.619 49.2324 244.398 49.4473 245.562 49.4473C246.457 49.4473 247.209 49.3936 247.817 49.2861V55.7583C246.188 56.2775 244.487 56.5371 242.715 56.5371C239.6 56.5371 237.299 55.8031 235.813 54.335C234.327 52.8669 233.584 50.6379 233.584 47.6479V33.2266H229.878V26.9424H233.584V19.7183H242.634ZM265.059 56.5371C260.601 56.5371 256.993 55.2122 254.236 52.5625C251.479 49.8949 250.1 46.4305 250.1 42.1694V41.4175C250.1 38.4455 250.646 35.8226 251.738 33.5488C252.848 31.2751 254.46 29.5205 256.572 28.2852C258.685 27.0319 261.191 26.4053 264.092 26.4053C268.174 26.4053 271.396 27.6764 273.76 30.2188C276.123 32.7432 277.305 36.2702 277.305 40.7998V44.3179H259.312C259.634 45.9471 260.341 47.2272 261.433 48.1582C262.525 49.0892 263.94 49.5547 265.676 49.5547C268.541 49.5547 270.779 48.5521 272.39 46.5469L276.526 51.4346C275.398 52.9922 273.796 54.2365 271.719 55.1675C269.66 56.0806 267.44 56.5371 265.059 56.5371ZM264.038 33.3877C261.388 33.3877 259.813 35.1423 259.312 38.6514H268.442V37.9531C268.478 36.5029 268.111 35.384 267.341 34.5962C266.571 33.7905 265.47 33.3877 264.038 33.3877ZM290.518 56H281.44V14.75H290.518V56ZM183.123 109.607C183.123 108.228 182.63 107.154 181.646 106.384C180.679 105.614 178.969 104.818 176.516 103.994C174.063 103.171 172.058 102.374 170.5 101.604C165.434 99.1154 162.9 95.6958 162.9 91.3452C162.9 89.1789 163.527 87.2721 164.78 85.625C166.051 83.96 167.842 82.6709 170.151 81.7578C172.461 80.8268 175.057 80.3613 177.939 80.3613C180.75 80.3613 183.266 80.8626 185.486 81.8652C187.724 82.8678 189.46 84.3001 190.696 86.1621C191.931 88.0062 192.549 90.1188 192.549 92.5H183.149C183.149 90.9066 182.657 89.6712 181.672 88.7939C180.706 87.9167 179.39 87.478 177.725 87.478C176.042 87.478 174.708 87.854 173.723 88.606C172.756 89.34 172.273 90.2799 172.273 91.4258C172.273 92.4284 172.81 93.3415 173.884 94.165C174.958 94.9707 176.847 95.8122 179.551 96.6895C182.254 97.5488 184.474 98.4798 186.211 99.4824C190.436 101.917 192.549 105.274 192.549 109.553C192.549 112.973 191.26 115.658 188.682 117.61C186.104 119.561 182.568 120.537 178.074 120.537C174.905 120.537 172.031 119.973 169.453 118.845C166.893 117.699 164.959 116.142 163.652 114.172C162.363 112.185 161.719 109.902 161.719 107.324H171.172C171.172 109.419 171.709 110.968 172.783 111.97C173.875 112.955 175.639 113.447 178.074 113.447C179.631 113.447 180.858 113.116 181.753 112.454C182.666 111.773 183.123 110.824 183.123 109.607ZM211.025 120.537C206.567 120.537 202.96 119.212 200.203 116.562C197.445 113.895 196.067 110.431 196.067 106.169V105.417C196.067 102.445 196.613 99.8226 197.705 97.5488C198.815 95.2751 200.426 93.5205 202.539 92.2852C204.652 91.0319 207.158 90.4053 210.059 90.4053C214.141 90.4053 217.363 91.6764 219.727 94.2188C222.09 96.7432 223.271 100.27 223.271 104.8V108.318H205.278C205.601 109.947 206.308 111.227 207.4 112.158C208.492 113.089 209.906 113.555 211.643 113.555C214.508 113.555 216.746 112.552 218.357 110.547L222.493 115.435C221.365 116.992 219.762 118.236 217.686 119.167C215.627 120.081 213.407 120.537 211.025 120.537ZM210.005 97.3877C207.355 97.3877 205.78 99.1423 205.278 102.651H214.409V101.953C214.445 100.503 214.078 99.384 213.308 98.5962C212.538 97.7905 211.437 97.3877 210.005 97.3877ZM243.306 120C242.983 119.409 242.697 118.541 242.446 117.395C240.781 119.49 238.454 120.537 235.464 120.537C232.725 120.537 230.397 119.714 228.481 118.066C226.566 116.401 225.608 114.316 225.608 111.809C225.608 108.658 226.772 106.277 229.099 104.666C231.427 103.054 234.81 102.249 239.25 102.249H242.043V100.718C242.043 98.0501 240.889 96.7163 238.579 96.7163C236.431 96.7163 235.356 97.7726 235.356 99.8853H226.306C226.306 97.0744 227.497 94.7917 229.878 93.0371C232.277 91.2826 235.33 90.4053 239.036 90.4053C242.742 90.4053 245.669 91.3094 247.817 93.1177C249.966 94.9259 251.067 97.4056 251.121 100.557V113.42C251.156 116.088 251.568 118.129 252.356 119.543V120H243.306ZM237.639 114.092C238.767 114.092 239.698 113.85 240.432 113.367C241.184 112.883 241.721 112.337 242.043 111.729V107.083H239.412C236.261 107.083 234.685 108.497 234.685 111.326C234.685 112.149 234.963 112.821 235.518 113.34C236.073 113.841 236.78 114.092 237.639 114.092ZM273.733 99.1333L270.752 98.9185C267.905 98.9185 266.079 99.8136 265.273 101.604V120H256.223V90.9424H264.709L265.005 94.6753C266.527 91.8286 268.648 90.4053 271.37 90.4053C272.336 90.4053 273.178 90.5127 273.894 90.7275L273.733 99.1333ZM288.745 113.555C290.016 113.555 291.001 113.215 291.699 112.534C292.397 111.836 292.738 110.869 292.72 109.634H301.206C301.206 112.821 300.06 115.435 297.769 117.476C295.495 119.517 292.559 120.537 288.96 120.537C284.735 120.537 281.405 119.212 278.97 116.562C276.535 113.913 275.317 110.243 275.317 105.552V105.176C275.317 102.24 275.854 99.6525 276.929 97.4146C278.021 95.1587 279.587 93.431 281.628 92.2314C283.669 91.014 286.086 90.4053 288.879 90.4053C292.657 90.4053 295.656 91.4526 297.876 93.5474C300.096 95.6421 301.206 98.4798 301.206 102.061H292.72C292.72 100.557 292.353 99.4019 291.619 98.5962C290.885 97.7905 289.9 97.3877 288.665 97.3877C286.319 97.3877 284.95 98.8826 284.556 101.873C284.43 102.821 284.368 104.128 284.368 105.793C284.368 108.712 284.717 110.735 285.415 111.863C286.113 112.991 287.223 113.555 288.745 113.555ZM313.882 94.0576C315.815 91.6227 318.286 90.4053 321.294 90.4053C324.499 90.4053 326.916 91.3542 328.545 93.252C330.174 95.1497 331.007 97.9517 331.042 101.658V120H321.965V101.873C321.965 100.333 321.652 99.2049 321.025 98.4888C320.399 97.7547 319.333 97.3877 317.83 97.3877C315.968 97.3877 314.652 97.9785 313.882 99.1602V120H304.832V78.75H313.882V94.0576Z" fill="white"/>
<defs>
<clipPath id="clip0_9:1005">
<rect width="138.249" height="138" fill="white"/>
</clipPath>
<clipPath id="clip1_9:1005">
<rect width="53.0578" height="52.8087" fill="white" transform="translate(36.9277 36.8678)"/>
</clipPath>
</defs>
</svg>
