<svg width="40" height="40" viewBox="0 0 40 40" fill="none" xmlns="http://www.w3.org/2000/svg">
<g clip-path="url(#clip0_21:76)">
<path d="M29.8944 27.5004L35.8201 33.414C36.4688 34.0614 36.4689 35.1124 35.8202 35.7599C35.1733 36.4057 34.1255 36.4056 33.4786 35.7597L27.5501 29.8405C24.9085 31.9542 21.6229 33.1039 18.2374 33.0991C10.0007 33.0991 3.31592 26.4263 3.31592 18.2045C3.31592 9.98265 10.0007 3.30988 18.2374 3.30988C26.4741 3.30988 33.1589 9.98265 33.1589 18.2045C33.1637 21.5839 32.0119 24.8636 29.8944 27.5004ZM26.5686 26.2724C28.6727 24.1125 29.8477 21.2172 29.843 18.2045C29.843 11.8031 24.6487 6.61979 18.2374 6.61979C11.8245 6.61979 6.6318 11.8031 6.6318 18.2045C6.6318 24.6042 11.8245 29.7892 18.2374 29.7892C21.2556 29.7939 24.1561 28.6209 26.3199 26.5206L26.5686 26.2724Z" fill="white"/>
</g>
<g clip-path="url(#clip1_21:76)">
<path d="M24.6267 17.5775V22.641C24.6267 22.9924 24.3418 23.2773 23.9904 23.2773C23.639 23.2773 23.3541 22.9924 23.3541 22.641V21.3774H13.1735V22.641C13.1735 22.9924 12.8886 23.2773 12.5372 23.2773C12.1858 23.2773 11.9009 22.9924 11.9009 22.641V13.7807C11.9009 13.4293 12.1858 13.1444 12.5372 13.1444C12.8886 13.1444 13.1735 13.4293 13.1735 13.7807V19.4774H18.2638V15.0443H22.0815C22.7566 15.0443 23.4039 15.3112 23.8812 15.7863C24.3586 16.2614 24.6267 16.9057 24.6267 17.5775ZM15.7186 18.8441C15.2124 18.8441 14.7268 18.644 14.3688 18.2877C14.0109 17.9314 13.8098 17.4481 13.8098 16.9442C13.8098 16.4403 14.0109 15.9571 14.3688 15.6008C14.7268 15.2445 15.2124 15.0443 15.7186 15.0443C16.2249 15.0443 16.7104 15.2445 17.0684 15.6008C17.4264 15.9571 17.6275 16.4403 17.6275 16.9442C17.6275 17.4481 17.4264 17.9314 17.0684 18.2877C16.7104 18.644 16.2249 18.8441 15.7186 18.8441Z" fill="white"/>
</g>
<defs>
<clipPath id="clip0_21:76">
<rect width="39.7906" height="39.7189" fill="white"/>
</clipPath>
<clipPath id="clip1_21:76">
<rect width="15.271" height="15.1993" fill="white" transform="translate(10.6284 10.6112)"/>
</clipPath>
</defs>
</svg>
