<svg width="740" height="738" viewBox="0 0 740 738" fill="none" xmlns="http://www.w3.org/2000/svg">
<path d="M555.454 510.973L665.557 620.852C677.611 632.881 677.612 652.409 665.56 664.439C653.539 676.439 634.071 676.437 622.051 664.437L511.895 554.453C462.814 593.728 401.765 615.089 338.861 615C185.819 615 61.611 491.016 61.611 338.25C61.611 185.484 185.819 61.5 338.861 61.5C491.902 61.5 616.11 185.484 616.11 338.25C616.2 401.042 594.799 461.98 555.454 510.973ZM493.658 488.156C532.754 448.024 554.587 394.228 554.499 338.25C554.499 219.309 457.985 123 338.861 123C219.705 123 123.222 219.309 123.222 338.25C123.222 457.16 219.705 553.5 338.861 553.5C394.94 553.588 448.833 531.794 489.037 492.769L493.658 488.156Z" fill="#A8BAE7"/>
<g clip-path="url(#clip0_1:12)">
<path d="M457.582 326.601V420.683C457.582 427.212 452.289 432.505 445.759 432.505C439.23 432.505 433.937 427.212 433.937 420.683V397.204H244.774V420.683C244.774 427.212 239.481 432.505 232.952 432.505C226.422 432.505 221.129 427.212 221.129 420.683V256.054C221.129 249.524 226.422 244.231 232.952 244.231C239.481 244.231 244.774 249.524 244.774 256.054V361.903H339.356V279.532H410.292C422.834 279.532 434.862 284.491 443.731 293.319C452.6 302.146 457.582 314.118 457.582 326.601ZM292.065 350.135C282.658 350.135 273.637 346.416 266.985 339.796C260.334 333.176 256.597 324.196 256.597 314.834C256.597 305.471 260.334 296.492 266.985 289.872C273.637 283.252 282.658 279.532 292.065 279.532C301.472 279.532 310.493 283.252 317.145 289.872C323.796 296.492 327.533 305.471 327.533 314.834C327.533 324.196 323.796 333.176 317.145 339.796C310.493 346.416 301.472 350.135 292.065 350.135Z" fill="#2652C4"/>
</g>
<defs>
<clipPath id="clip0_1:12">
<rect width="283.744" height="282.412" fill="white" transform="translate(197.484 197.162)"/>
</clipPath>
</defs>
</svg>
