<svg width="26" height="20" viewBox="0 0 26 20" fill="none" xmlns="http://www.w3.org/2000/svg">
<path d="M12.6839 15.3268C10.2573 15.3268 8.19951 13.8889 7.43429 11.8468L7.11402 11.9499L6.79686 12.0535C7.6336 14.3651 9.95011 16 12.6833 16C15.4028 16 17.7236 14.3478 18.5725 12.0634L17.9394 11.838C17.1702 13.8663 15.103 15.3268 12.6839 15.3268ZM8.35747 10.6035L7.5938 10.4718C7.20699 10.7504 6.76608 10.6299 6.62615 10.2142H8.5344V11.3578H9.4097V10.8163C9.51946 11.4017 10.3195 11.5978 10.7514 11.1617C10.7514 11.2904 10.7359 11.4397 10.6942 11.5626C10.5558 11.8787 10.0925 11.8787 9.85279 11.6651L9.30864 12.3324C9.65565 12.5929 10.0073 12.7187 10.456 12.6778C10.8254 12.6426 11.0779 12.5812 11.3602 12.3382C11.5748 12.11 11.7072 11.8729 11.7072 11.5685V8.75288H10.7247V10.31C10.7247 10.6202 10.2893 10.6202 10.2893 10.31V8.75288H9.41249V7.71707H8.53564V9.56537C8.20915 8.95951 7.65257 8.64927 6.94984 8.74293C6.44612 8.84976 6.07299 9.11522 5.8802 9.56302C5.70608 9.03151 5.28631 8.74937 4.71107 8.72098C4.10162 8.72098 3.64454 9.00488 3.46108 9.56302C3.15325 8.91912 2.53137 8.60888 1.79755 8.76693C1.35912 8.89863 1.10415 9.11815 0.883383 9.50741V7.71707H0V11.358H0.874988V10.5701C1.20334 11.0695 1.60694 11.3449 2.19338 11.3563C2.81775 11.3212 3.17284 11.0396 3.5012 10.514V11.3578H4.37712V9.79776C4.37712 9.48458 4.92437 9.48458 4.92437 9.79776V11.3578H5.90788V10.5646C6.01764 10.9948 6.41254 11.2553 6.89667 11.3724C7.95511 11.466 8.35187 10.7753 8.35716 10.5997L8.35747 10.6035ZM2.13865 10.5889C1.8159 10.5889 1.5547 10.3386 1.5547 10.0322C1.5547 9.72722 1.8159 9.47727 2.13927 9.47727C2.46141 9.47727 2.72322 9.72722 2.72322 10.0325C2.72322 10.3398 2.46203 10.5915 2.13927 10.5915L2.13865 10.5889ZM7.74056 9.90312H6.60563C6.78131 9.38215 7.55773 9.38215 7.74056 9.90312ZM25.463 10.3597L25.4216 10.3919C25.2574 10.5178 25.0143 10.4592 24.9291 10.2865C24.8411 10.0348 24.8868 9.79483 24.8868 9.48166H25.4944V8.75581H24.8383V8.23483H23.9645V9.56361C23.8557 9.19483 23.579 8.9841 23.1965 8.81727C22.4316 8.55971 21.7102 8.86117 21.3744 9.56361C21.2407 9.19483 21.0448 8.96946 20.6748 8.80263C19.9378 8.55678 19.2258 8.84654 18.9708 9.56068C18.7687 9.11288 18.4795 8.8758 17.9758 8.7441C17.2948 8.6358 16.7507 8.91678 16.4242 9.50215V7.71678H15.4385V9.508C15.3297 9.28849 15.2115 9.13044 15.0125 8.97532C14.0673 8.32263 12.8111 8.97239 12.8111 10.07V12.3939H13.7563C13.7563 12.186 13.7284 11.2495 13.7284 11.2495L13.8061 11.2875C14.4964 11.4543 15.2209 11.1236 15.4416 10.6114V11.3519H16.4273V10.6146C16.6481 11.1502 17.1953 11.4593 17.8266 11.4166C18.1188 11.4341 18.3583 10.7229 18.3614 10.9266L18.3455 11.4605H18.963L19.8088 11.4049V9.79512C19.8088 9.46029 20.413 9.40673 20.4431 9.74976C20.4503 10.2766 20.4742 10.838 20.4742 11.3578H21.3408V10.5646C21.5594 10.9246 21.7513 11.1324 22.1213 11.3051C22.8529 11.5304 23.6262 11.4192 23.9123 10.5734L23.1449 10.43C22.9677 10.6817 22.3396 10.7314 22.1387 10.2104H23.9981C23.9981 10.626 24.0043 10.9626 24.4023 11.2378C24.7972 11.51 25.5062 11.2582 25.5 11.0826L25.4658 10.3568L25.463 10.3597ZM14.2529 10.6026C13.9311 10.6026 13.6683 10.3509 13.6683 10.0465C13.6683 9.74215 13.9311 9.49044 14.2529 9.49044C14.5747 9.49044 14.8375 9.74215 14.8375 10.0465C14.8375 10.3509 14.5747 10.6026 14.2529 10.6026ZM17.663 10.6026C17.3409 10.6026 17.0791 10.3509 17.0791 10.0465C17.0791 9.74215 17.3402 9.49044 17.663 9.49044C17.9848 9.49044 18.2476 9.74215 18.2476 10.0465C18.2476 10.3509 17.9848 10.6026 17.663 10.6026ZM22.1281 9.9002C22.2805 9.37922 23.0703 9.37922 23.2469 9.9002H22.1281ZM12.6879 4.68488C15.1139 4.68488 17.173 6.14829 17.9382 8.22868L18.2575 8.1239L18.5747 8.01795C17.7392 5.66537 15.4211 4 12.6864 4C9.96721 4 7.64542 5.68293 6.79717 8.00976L7.43087 8.23893C8.20107 6.17259 10.2691 4.68634 12.6879 4.68634V4.68488Z" fill="#747474"/>
</svg>
