<svg width="20" height="20" viewBox="0 0 20 20" fill="none" xmlns="http://www.w3.org/2000/svg">
<path d="M5.74239 12.4102C6.04109 12.4102 6.3331 12.3203 6.58148 12.1517C6.82986 11.9832 7.02345 11.7437 7.13778 11.4634C7.25211 11.1831 7.28203 10.8747 7.22377 10.5771C7.1655 10.2795 7.02167 10.0062 6.81046 9.79167C6.59924 9.57714 6.33013 9.43105 6.03717 9.37187C5.7442 9.31269 5.44054 9.34309 5.16458 9.45921C4.88862 9.57533 4.65277 9.77196 4.48684 10.0242C4.32092 10.2765 4.23238 10.5731 4.23242 10.8765C4.23248 11.2832 4.39158 11.6733 4.67474 11.9609C4.9579 12.2485 5.34194 12.4101 5.74239 12.4102Z" fill="#9B9B9B"/>
<path d="M14.2558 12.4104C15.0898 12.4104 15.766 11.7237 15.766 10.8765C15.766 10.0294 15.0898 9.34265 14.2558 9.34265C13.4217 9.34265 12.7456 10.0294 12.7456 10.8765C12.7456 11.7237 13.4217 12.4104 14.2558 12.4104Z" fill="#9B9B9B"/>
<path d="M1.48585 10.8765C1.48585 13.2646 3.39152 15.1999 5.74244 15.1999C6.81558 15.2014 7.84937 14.7896 8.63537 14.0475L9.99986 15.5556L11.3644 14.0483C12.1503 14.7899 13.1837 15.2013 14.2564 15.1997C16.6076 15.1997 18.5149 13.2639 18.5149 10.8763C18.5155 10.2748 18.3922 9.67975 18.153 9.12947C17.9137 8.57919 17.5638 8.08583 17.1257 7.68108L18.5185 6.14187H15.4307C13.8306 5.03589 11.9398 4.44446 10.0043 4.44446C8.06874 4.44446 6.17798 5.03589 4.57779 6.14187H1.48145L2.87428 7.68108C2.43625 8.08592 2.08645 8.57935 1.84733 9.12967C1.60822 9.67998 1.48509 10.275 1.48585 10.8765ZM17.1366 10.8765C17.1366 11.4552 16.9676 12.0209 16.6511 12.5021C16.3345 12.9833 15.8846 13.3583 15.3582 13.5798C14.8318 13.8012 14.2526 13.8592 13.6938 13.7463C13.135 13.6334 12.6217 13.3547 12.2188 12.9455C11.8159 12.5363 11.5416 12.015 11.4304 11.4474C11.3193 10.8798 11.3763 10.2915 11.5943 9.75683C11.8124 9.22218 12.1816 8.7652 12.6553 8.4437C13.1291 8.12219 13.6861 7.95058 14.2558 7.95058C15.0198 7.95058 15.7526 8.25885 16.2928 8.80758C16.8331 9.3563 17.1366 10.1005 17.1366 10.8765ZM9.99923 5.85893C11.0972 5.85755 12.1844 6.07833 13.1974 6.50839C11.3793 7.21499 10.0007 8.86698 10.0007 10.7921C10.0007 8.86677 8.62172 7.21456 6.80338 6.50818C7.81567 6.07845 8.90208 5.85774 9.99923 5.85893ZM5.74244 7.95058C6.3122 7.95058 6.86916 8.12219 7.3429 8.4437C7.81664 8.7652 8.18587 9.22218 8.40391 9.75683C8.62195 10.2915 8.67899 10.8798 8.56784 11.4474C8.45669 12.015 8.18232 12.5363 7.77944 12.9455C7.37656 13.3547 6.86326 13.6334 6.30444 13.7463C5.74563 13.8592 5.16641 13.8012 4.64002 13.5798C4.11363 13.3583 3.66372 12.9833 3.34718 12.5021C3.03063 12.0209 2.86168 11.4552 2.86168 10.8765C2.86168 10.1005 3.16519 9.3563 3.70543 8.80758C4.24568 8.25885 4.97841 7.95058 5.74244 7.95058Z" fill="#9B9B9B"/>
</svg>
