<svg width="46" height="46" viewBox="0 0 46 46" fill="none" xmlns="http://www.w3.org/2000/svg">
<rect width="46" height="46" rx="23" fill="white"/>
<path d="M28.994 27.6715L32.3382 31.0149C32.7037 31.3803 32.7037 31.9728 32.3383 32.3383C31.9728 32.7037 31.3803 32.7037 31.0149 32.3382L27.6715 28.994C26.1813 30.1886 24.3278 30.8384 22.4178 30.8357C17.7712 30.8357 14 27.0645 14 22.4178C14 17.7712 17.7712 14 22.4178 14C27.0645 14 30.8357 17.7712 30.8357 22.4178C30.8384 24.3278 30.1886 26.1813 28.994 27.6715ZM27.1178 26.9775C28.3048 25.7568 28.9677 24.1205 28.965 22.4178C28.965 18.8 26.0347 15.8706 22.4178 15.8706C18.8 15.8706 15.8706 18.8 15.8706 22.4178C15.8706 26.0347 18.8 28.965 22.4178 28.965C24.1205 28.9677 25.7568 28.3048 26.9775 27.1178L27.1178 26.9775Z" fill="#202123"/>
</svg>
